<svg xmlns="http://www.w3.org/2000/svg" viewBox="0 0 120 120">
  <rect width="120" height="120" rx="24" fill="#080812"/>
  <g transform="translate(0,27)">
    <path d="M10 44 Q12 28 30 22 L50 16 Q60 14 70 16 L90 22 Q108 28 110 44 L110 52 Q110 58 104 58 L16 58 Q10 58 10 52 Z" fill="#cc2200"/>
    <path d="M35 22 L42 10 Q52 6 68 10 L78 22 Z" fill="#ff6644"/>
    <path d="M38 22 L44 12 Q52 8.5 68 12 L74 22 Z" fill="#aaddff" opacity="0.75"/>
    <circle cx="32" cy="57" r="9" fill="#111"/>
    <circle cx="32" cy="57" r="6" fill="#333"/>
    <circle cx="88" cy="57" r="9" fill="#111"/>
    <circle cx="88" cy="57" r="6" fill="#333"/>
    <ellipse cx="108" cy="40" rx="4" ry="3" fill="#ffff99" opacity="0.9"/>
  </g>
</svg>
